<?xml version="1.0" encoding="UTF-8"?>
<svg xmlns="http://www.w3.org/2000/svg" width="123" height="37" viewBox="0 0 123 37" fill="none">
  <path d="M22.1217 18.3512C25.0579 20.0706 26.526 22.6662 26.526 26.138C26.526 29.2131 25.4583 31.6764 23.3229 33.5281C21.1875 35.3797 18.3347 36.3056 14.7645 36.3056H0V1.58716H13.8136C17.317 1.58716 20.1198 2.47992 22.2218 4.26544C24.3239 6.01789 25.3749 8.41511 25.3749 11.4571C25.3749 14.3668 24.2905 16.6649 22.1217 18.3512ZM13.5633 9.5228H8.9588V14.9785H13.5633C14.3641 14.9785 15.0314 14.7471 15.5653 14.2842C16.1325 13.7882 16.4161 13.1104 16.4161 12.2507C16.4161 11.424 16.1492 10.7627 15.6153 10.2668C15.0815 9.77078 14.3975 9.5228 13.5633 9.5228ZM14.5143 28.3699C15.4151 28.3699 16.1492 28.1054 16.7164 27.5764C17.2836 27.0143 17.5673 26.3034 17.5673 25.4437C17.5673 24.5509 17.2836 23.84 16.7164 23.311C16.1492 22.7819 15.4151 22.5174 14.5143 22.5174H8.9588V28.3699H14.5143Z" fill="white"></path>
  <path d="M28.7564 36.3056V11.5067H37.0645V36.3056H28.7564Z" fill="white"></path>
  <path d="M52.9673 36.9999C49.2636 36.9999 46.1105 35.7435 43.508 33.2305C40.9054 30.6845 39.6041 27.5764 39.6041 23.9061C39.6041 20.2359 40.9054 17.1443 43.508 14.6314C46.1105 12.0853 49.2636 10.8123 52.9673 10.8123C56.7043 10.8123 59.8573 12.0853 62.4265 14.6314C65.0291 17.1443 66.3304 20.2359 66.3304 23.9061C66.3304 27.5764 65.0291 30.6845 62.4265 33.2305C59.8573 35.7435 56.7043 36.9999 52.9673 36.9999ZM52.9673 29.0643C54.4354 29.0643 55.6365 28.5849 56.5708 27.626C57.5384 26.6671 58.0222 25.4271 58.0222 23.9061C58.0222 22.3851 57.5384 21.1452 56.5708 20.1863C55.6365 19.2274 54.4354 18.748 52.9673 18.748C51.5325 18.748 50.3313 19.2274 49.3637 20.1863C48.4295 21.1452 47.9623 22.3851 47.9623 23.9061C47.9623 25.4271 48.4295 26.6671 49.3637 27.626C50.3313 28.5849 51.5325 29.0643 52.9673 29.0643Z" fill="white"></path>
  <path d="M84.2484 10.8123C86.951 10.8123 89.1532 11.7382 90.8548 13.5898C92.5899 15.4084 93.4574 18.0371 93.4574 21.4758V36.3056H85.1492V22.5174C85.1492 21.2279 84.7989 20.2524 84.0982 19.5911C83.4309 18.9298 82.53 18.5992 81.3956 18.5992C80.0943 18.5992 79.0766 18.996 78.3426 19.7895C77.6419 20.55 77.2915 21.6577 77.2915 23.1126V36.3056H68.9834V11.5067H77.2915V13.9866C78.793 11.8704 81.1119 10.8123 84.2484 10.8123Z" fill="white"></path>
  <path d="M114.584 11.5067H122.893V36.3056H114.584V34.0241C112.883 36.008 110.514 36.9999 107.477 36.9999C104.141 36.9999 101.338 35.76 99.0692 33.2801C96.8336 30.7672 95.7159 27.6425 95.7159 23.9061C95.7159 20.1698 96.8336 17.0617 99.0692 14.5818C101.338 12.0688 104.141 10.8123 107.477 10.8123C110.514 10.8123 112.883 11.8043 114.584 13.7882V11.5067ZM105.525 27.8244C106.493 28.8163 107.761 29.3123 109.329 29.3123C110.897 29.3123 112.165 28.8163 113.133 27.8244C114.101 26.8324 114.584 25.5263 114.584 23.9061C114.584 22.2859 114.101 20.9799 113.133 19.9879C112.165 18.996 110.897 18.5 109.329 18.5C107.761 18.5 106.493 18.996 105.525 19.9879C104.558 20.9799 104.074 22.2859 104.074 23.9061C104.074 25.5263 104.558 26.8324 105.525 27.8244Z" fill="white"></path>
  <path d="M32.9109 9.47317C34.2122 9.47317 35.33 9.01026 36.2642 8.08443C37.2318 7.12554 37.7156 6.00133 37.7156 4.71179C37.7156 3.42224 37.2318 2.31456 36.2642 1.38874C35.33 0.462912 34.2122 0 32.9109 0C31.6096 0 30.4752 0.462912 29.5076 1.38874C28.5733 2.31456 28.1062 3.42224 28.1062 4.71179C28.1062 6.00133 28.5733 7.12554 29.5076 8.08443C30.4752 9.01026 31.6096 9.47317 32.9109 9.47317Z" fill="#FF0505"></path>
</svg>
