<?xml version="1.0" encoding="UTF-8"?>
<svg xmlns="http://www.w3.org/2000/svg" width="93" height="28" viewBox="0 0 93 28" fill="none">
  <path d="M16.7408 13.8875C18.9628 15.1887 20.0738 17.1529 20.0738 19.7803C20.0738 22.1073 19.2658 23.9715 17.6498 25.3728C16.0338 26.774 13.8749 27.4746 11.1732 27.4746H0V1.20117H10.4535C13.1048 1.20117 15.2258 1.87678 16.8166 3.22798C18.4073 4.55417 19.2027 6.36828 19.2027 8.67034C19.2027 10.8723 18.3821 12.6114 16.7408 13.8875ZM10.2642 7.20653H6.77965V11.3352H10.2642C10.8702 11.3352 11.3752 11.1601 11.7792 10.8097C12.2084 10.4344 12.423 9.92146 12.423 9.27088C12.423 8.64532 12.221 8.14487 11.817 7.76954C11.413 7.3942 10.8954 7.20653 10.2642 7.20653ZM10.9838 21.4693C11.6655 21.4693 12.221 21.2691 12.6503 20.8687C13.0795 20.4433 13.2942 19.9054 13.2942 19.2548C13.2942 18.5792 13.0795 18.0412 12.6503 17.6409C12.221 17.2405 11.6655 17.0403 10.9838 17.0403H6.77965V21.4693H10.9838Z" fill="white"></path>
  <path d="M21.7616 27.4746V8.70788H28.0489V27.4746H21.7616Z" fill="white"></path>
  <path d="M40.0834 28.0001C37.2807 28.0001 34.8945 27.0492 32.925 25.1475C30.9555 23.2208 29.9708 20.8687 29.9708 18.0913C29.9708 15.3138 30.9555 12.9742 32.925 11.0725C34.8945 9.14577 37.2807 8.18241 40.0834 8.18241C42.9114 8.18241 45.2976 9.14577 47.2418 11.0725C49.2113 12.9742 50.1961 15.3138 50.1961 18.0913C50.1961 20.8687 49.2113 23.2208 47.2418 25.1475C45.2976 27.0492 42.9114 28.0001 40.0834 28.0001ZM40.0834 21.9947C41.1944 21.9947 42.1034 21.6319 42.8104 20.9063C43.5427 20.1806 43.9088 19.2423 43.9088 18.0913C43.9088 16.9402 43.5427 16.0019 42.8104 15.2762C42.1034 14.5506 41.1944 14.1878 40.0834 14.1878C38.9977 14.1878 38.0887 14.5506 37.3564 15.2762C36.6494 16.0019 36.2959 16.9402 36.2959 18.0913C36.2959 19.2423 36.6494 20.1806 37.3564 20.9063C38.0887 21.6319 38.9977 21.9947 40.0834 21.9947Z" fill="white"></path>
  <path d="M63.7557 8.18241C65.8009 8.18241 67.4674 8.88303 68.7552 10.2843C70.0682 11.6605 70.7247 13.6498 70.7247 16.2521V27.4746H64.4374V17.0403C64.4374 16.0644 64.1723 15.3263 63.642 14.8258C63.137 14.3254 62.4553 14.0752 61.5968 14.0752C60.612 14.0752 59.8419 14.3754 59.2864 14.976C58.7562 15.5515 58.491 16.3897 58.491 17.4907V27.4746H52.2038V8.70788H58.491V10.5845C59.6273 8.98312 61.3822 8.18241 63.7557 8.18241Z" fill="white"></path>
  <path d="M86.7127 8.70788H93V27.4746H86.7127V25.7481C85.425 27.2494 83.6322 28.0001 81.3345 28.0001C78.8095 28.0001 76.6884 27.0618 74.9714 25.1851C73.2797 23.2834 72.4338 20.9188 72.4338 18.0913C72.4338 15.2637 73.2797 12.9116 74.9714 11.035C76.6884 9.13325 78.8095 8.18241 81.3345 8.18241C83.6322 8.18241 85.425 8.93307 86.7127 10.4344V8.70788ZM79.8573 21.0564C80.5896 21.8071 81.5491 22.1824 82.7358 22.1824C83.9226 22.1824 84.8821 21.8071 85.6144 21.0564C86.3466 20.3057 86.7127 19.3173 86.7127 18.0913C86.7127 16.8652 86.3466 15.8768 85.6144 15.1261C84.8821 14.3754 83.9226 14.0001 82.7358 14.0001C81.5491 14.0001 80.5896 14.3754 79.8573 15.1261C79.1251 15.8768 78.759 16.8652 78.759 18.0913C78.759 19.3173 79.1251 20.3057 79.8573 21.0564Z" fill="white"></path>
  <path d="M24.9055 7.1689C25.8903 7.1689 26.7362 6.81859 27.4432 6.11796C28.1754 5.39231 28.5416 4.54155 28.5416 3.56568C28.5416 2.58981 28.1754 1.75156 27.4432 1.05094C26.7362 0.350313 25.8903 0 24.9055 0C23.9208 0 23.0623 0.350313 22.33 1.05094C21.623 1.75156 21.2695 2.58981 21.2695 3.56568C21.2695 4.54155 21.623 5.39231 22.33 6.11796C23.0623 6.81859 23.9208 7.1689 24.9055 7.1689Z" fill="#FF0505"></path>
</svg>

